<?xml version="1.0" encoding="utf-8"?>
<!-- Generator: Adobe Illustrator 25.0.1, SVG Export Plug-In . SVG Version: 6.00 Build 0)  -->
<svg version="1.1" id="Layer_1" xmlns="http://www.w3.org/2000/svg" xmlns:xlink="http://www.w3.org/1999/xlink" x="0px" y="0px"
	 viewBox="0 0 250 250" style="enable-background:new 0 0 250 250;" xml:space="preserve">
<style type="text/css">
	.st0{fill:#147AC9;}
	.st1{fill:none;}
	.st2{fill:#FFFFFF;}
	.st3{font-family:'Arial-Black';}
	.st4{font-size:18px;}
</style>
<g id="Layer_5_87_">
	<path class="st0" d="M158.5,184.9c-3.8,3.8-1.9,5.3-1,6.1c22,22,75,41.5,69.8,31.2c-18.9-37.6-13.2-43.8-35.2-65.8
		c-0.8-0.8-2.3-2.8-6.2,1.1L158.5,184.9L158.5,184.9z"/>
	<path class="st0" d="M158.2,66.3c-3.2,1-4.7-1.1-5.6-2C100.1,15.9,30.4-15,7.5,7.9c-22.7,22.7,9,90.4,57.2,142.7c1,1,2.8,3.1,2,6.7
		l-3.9,16.3c-1.1,4.5,0.7,10.9,4,14.2l59.9,59.9c3.3,3.3,6.6,2.2,7.3-2.4l6.8-43.3c0.7-4.6-1.4-11.1-4.7-14.4c0,0-2.2-2.2,0-4.5
		c12.4-12.4,35.4-35.4,47.2-47.2c2.3-2.3,4.6-0.1,4.6-0.1c3.3,3.3,9.8,5.4,14.4,4.7l43.3-6.8c4.6-0.7,5.7-4,2.4-7.3l-59.9-59.9
		c-3.3-3.3-9.7-5.1-14.2-4L158.2,66.3L158.2,66.3z M80.8,79.7c-10.1,10.1-26.6,10.1-36.7,0S34,53.2,44.1,43
		c10.1-10.1,26.6-10.1,36.7,0C91,53.2,91,69.6,80.8,79.7z"/>
</g>
<rect x="100.8" y="123.3" class="st1" width="57" height="13"/>
<text transform="matrix(1 0 0 1 92.8465 136.0958)" class="st2 st3 st4">ASK US</text>
</svg>
