<?xml version="1.0" encoding="utf-8"?>
<!-- Generator: Adobe Illustrator 25.0.1, SVG Export Plug-In . SVG Version: 6.00 Build 0)  -->
<svg version="1.1" id="Layer_1" xmlns="http://www.w3.org/2000/svg" xmlns:xlink="http://www.w3.org/1999/xlink" x="0px" y="0px"
	 viewBox="0 0 250 234.8" style="enable-background:new 0 0 250 234.8;" xml:space="preserve">
<style type="text/css">
	.st0{fill:#147AC9;}
	.st1{fill:none;}
	.st2{fill:#FFFFFF;}
	.st3{font-family:'Arial-Black';}
	.st4{font-size:18px;}
</style>
<g id="Layer_5_87_">
	<path class="st0" d="M110.3,175.1c-4.6,0-4.3,1.8-4.3,2.7c0,23.3,19.9,61.7,23,53.5c11.1-29.8,18.2-30.2,18.2-53.5
		c0-0.9,0.4-2.7-4.4-2.7H110.3L110.3,175.1z"/>
	<path class="st0" d="M180.6,112.2c-2.5-1.1-2.2-3-2.2-4.1C176.1,54.7,152.9,1.4,125.8,1.4S77.3,54,74.8,107.3c-0.1,1-0.2,3-2.8,4.6
		l-12,6.6c-3.4,1.8-6.1,6.1-6.1,9.7v63.4c0,3.5,2.6,4.6,5.7,2.6l29.8-19.3c3.2-2,5.7-6.6,5.7-10.1c0,0,0-2.4,2.7-2.4
		c14.8,0,42.2,0,56.2,0c2.8,0,2.8,2.4,2.8,2.4c0,3.5,2.6,8,5.7,10.1l29.8,19.3c3.2,2,5.7,0.9,5.7-2.6V128c0-3.5-2.7-7.9-6.1-9.7
		L180.6,112.2L180.6,112.2z M126.6,78.2c-12,0-21.9-8.7-21.9-19.5c0-10.7,9.7-19.5,21.9-19.5c12,0,21.9,8.7,21.9,19.5
		S138.6,78.2,126.6,78.2z"/>
</g>
<rect x="67" y="120.6" class="st1" width="113.2" height="13"/>
<text transform="matrix(0.9 0 0 1 59.9839 142.332)" class="st2 st3 st4">SOCIAL MEDIA</text>
</svg>
