<?xml version="1.0" encoding="utf-8"?>
<!-- Generator: Adobe Illustrator 25.0.1, SVG Export Plug-In . SVG Version: 6.00 Build 0)  -->
<svg version="1.1" id="Layer_1" xmlns="http://www.w3.org/2000/svg" xmlns:xlink="http://www.w3.org/1999/xlink" x="0px" y="0px"
	 viewBox="0 0 250 250" style="enable-background:new 0 0 250 250;" xml:space="preserve">
<style type="text/css">
	.st0{fill:#147AC9;}
	.st1{fill:none;}
	.st2{fill:#FFFFFF;}
	.st3{font-family:'Arial-Black';}
	.st4{font-size:18px;}
</style>
<g id="Layer_5_87_">
	<path class="st0" d="M65,158.5c-3.8-3.8-5.3-1.9-6.1-1c-22,22-41.5,75-31.2,69.8C65.3,208.4,71.5,214,93.5,192
		c0.8-0.8,2.8-2.3-1.1-6.2L65,158.5L65,158.5z"/>
	<path class="st0" d="M183.5,158.2c-1-3.2,1.1-4.7,2-5.6C234,100.1,264.8,30.4,242,7.5c-22.7-22.7-90.4,9-142.7,57.2
		c-1,1-3.1,2.8-6.7,2l-16.3-3.9c-4.5-1.1-10.9,0.7-14.2,4l-60,59.9c-3.3,3.3-2.2,6.6,2.4,7.3l43.3,6.8c4.6,0.7,11.1-1.4,14.4-4.7
		c0,0,2.2-2.2,4.5,0c12.4,12.4,35.4,35.4,47.2,47.2c2.3,2.3,0.1,4.6,0.1,4.6c-3.3,3.3-5.4,9.8-4.7,14.4l6.8,43.3
		c0.7,4.6,4,5.7,7.3,2.4l59.9-59.9c3.3-3.3,5.1-9.7,4-14.2L183.5,158.2L183.5,158.2z M170.1,80.8c-10.1-10.1-10.1-26.6,0-36.7
		s26.6-10.1,36.7,0c10.1,10.1,10.1,26.6,0,36.7C196.7,91,180.2,91,170.1,80.8z"/>
</g>
<rect x="85.3" y="122" class="st1" width="85.4" height="13"/>
<text transform="matrix(0.8501 0 0 1 79.3203 133.5068)" class="st2 st3 st4">SUBSCRIBE</text>
</svg>
